<svg height="512" viewBox="0 0 512 512" width="512" xmlns="http://www.w3.org/2000/svg"><g id="flat"><path d="m104 280h304v208h-304z" fill="#e4e4e2"/><path d="m104 280h304v40h-304z" fill="#cbcbcb"/><path d="m456 296h-400l32-80h336z" fill="#fbb540"/><path d="m136 296h80a0 0 0 0 1 0 0 40 40 0 0 1 -40 40 40 40 0 0 1 -40-40 0 0 0 0 1 0 0z" fill="#f3af3e"/><path d="m296 296h80a0 0 0 0 1 0 0 40 40 0 0 1 -40 40 40 40 0 0 1 -40-40 0 0 0 0 1 0 0z" fill="#f3af3e"/><g fill="#f55648"><path d="m160 216-24 80-8 8h-64l-8-8 32-80z"/><path d="m224 216-8 80 16 8h48l16-8-8-80z"/><path d="m352 216 24 80 16 8h48l16-8-32-80z"/></g><circle cx="256" cy="144" fill="#428dc5" r="120"/><circle cx="256" cy="144" fill="#fbb540" r="104"/><path d="m256 240a96.016 96.016 0 0 1 -34.91-185.453 8 8 0 1 1 5.82 14.9 80.019 80.019 0 1 0 65.449 145.83 8 8 0 1 1 7.282 14.246 94.97 94.97 0 0 1 -43.641 10.477z" fill="#ea9d2d"/><path d="m320 216a7.976 7.976 0 0 1 -5.657-2.343l-64-64a8 8 0 0 1 -2.343-5.657v-88a8 8 0 0 1 16 0v84.687l61.657 61.656a8 8 0 0 1 -5.657 13.657z" fill="#f55648"/><path d="m224 368h184v64h-184z" fill="#6cbae5"/><path d="m224 424h184v8h-184z" fill="#63aad1"/><path d="m144 368h80v120h-80z" fill="#428dc5"/><path d="m56 296h80a0 0 0 0 1 0 0 40 40 0 0 1 -40 40 40 40 0 0 1 -40-40 0 0 0 0 1 0 0z" fill="#dc4d41"/><path d="m216 296h80a0 0 0 0 1 0 0 40 40 0 0 1 -40 40 40 40 0 0 1 -40-40 0 0 0 0 1 0 0z" fill="#dc4d41"/><path d="m376 296h80a0 0 0 0 1 0 0 40 40 0 0 1 -40 40 40 40 0 0 1 -40-40 0 0 0 0 1 0 0z" fill="#dc4d41"/><path d="m176 448a8 8 0 0 1 -8-8v-16a8 8 0 0 1 8-8h16a8 8 0 0 1 0 16h-8v8a8 8 0 0 1 -8 8z" fill="#3775a4"/></g></svg>